<?xml version="1.0" encoding="UTF-8"?>
<svg width="211px" height="109px" viewBox="0 0 211 109" version="1.1" xmlns="http://www.w3.org/2000/svg" xmlns:xlink="http://www.w3.org/1999/xlink">
    <g stroke="none" stroke-width="1" fill="none" fill-rule="evenodd">
        <g>
            <path d="M159.96,73.6796 L194.215,73.6796 C202.159,73.6796 208.599,67.2406 208.599,59.2966 C208.599,51.3596 202.17,44.9246 194.235,44.9136 C193.46,36.2246 186.169,29.4106 177.279,29.4106 C169.9,29.4106 163.635,34.1116 161.268,40.6746 C161.153,40.6726 161.042,40.6576 160.926,40.6576 C154.169,40.6576 148.385,44.8016 145.962,50.6846 L145.953,53.5646 L147.498,64.2346 L147.498,66.3626 L146.89,71.8326 L149.321,73.3536 L159.96,73.6796 Z" fill="#FFFFFF"></path>
            <path d="M159.983,72.1796 L194.215,72.1796 C201.319,72.1796 207.099,66.4006 207.099,59.2966 C207.099,52.2026 201.327,46.4236 194.233,46.4136 L192.863,46.4116 L192.741,45.0476 C192.022,36.9886 185.375,30.9106 177.278,30.9106 C170.762,30.9106 164.895,35.0386 162.679,41.1836 L162.316,42.1926 L161.243,42.1746 C161.161,42.1726 161.08,42.1676 160.999,42.1616 L160.987,42.1616 C155.045,42.1616 149.795,45.6176 147.461,50.9916 L147.453,53.4586 L148.998,64.2346 L148.988,66.5286 L148.485,71.0616 L149.773,71.8666 L159.983,72.1796 Z M194.215,75.1796 L159.914,75.1786 L148.87,74.8406 L145.295,72.6046 L145.998,66.2796 L145.998,64.3426 L144.452,53.6696 L144.463,50.3856 L144.575,50.1136 C147.231,43.6666 153.335,39.4306 160.249,39.1696 C163.146,32.3936 169.859,27.9106 177.278,27.9106 C186.496,27.9106 194.139,34.5116 195.567,43.4706 C203.693,44.1596 210.099,50.9986 210.099,59.2966 C210.099,68.0546 202.974,75.1796 194.215,75.1796 Z" fill="#0078D4"></path>
            <path d="M131.0699,33.995 C140.5859,33.995 148.3509,41.405 148.9609,50.766 C148.9859,51.158 149.0199,51.547 149.0199,51.945 C149.0199,52.625 148.9739,53.295 148.9009,53.955 C149.9519,53.755 151.0329,53.64 152.1419,53.64 C160.4129,53.64 167.3159,59.476 168.9699,67.254 C170.8659,67.766 172.6279,68.598 174.2049,69.68 C178.7189,72.777 181.6869,77.961 181.6869,83.85 C181.6869,93.356 173.9809,101.061 164.4759,101.061 C164.3829,101.061 164.2919,101.051 164.1989,101.05 L164.1989,101.051 L98.2279,101.051" fill="#0078D7"></path>
            <path d="M67.3096,26.5409 C68.1196,24.3899 68.5826,22.0689 68.5826,19.6349 C68.5826,8.7909 59.7916,-0.0001 48.9476,-0.0001 C39.5936,-0.0001 31.7816,6.5469 29.8076,15.3049 C27.8666,13.2989 25.1506,12.0469 22.1386,12.0469 C16.2396,12.0469 11.4576,16.8289 11.4576,22.7279 C11.4576,22.8169 11.4696,22.9029 11.4716,22.9929 C4.9336,24.2799 -0.0004,30.0389 -0.0004,36.9549 C-0.0004,44.8169 6.3736,51.1899 14.2356,51.1899 L55.4526,51.1899" fill="#0078D7"></path>
            <path d="M92.1798,108.9374 C92.1118,108.9374 92.0428,108.9364 91.9728,108.9344 C91.9028,108.9364 91.8348,108.9374 91.7658,108.9374 L92.1798,108.9374 Z" fill="#0078D7"></path>
            <path d="M133.9737,50.5917 C133.9737,88.4187 102.9227,108.6787 91.9727,108.9347 C92.0427,108.9367 92.1117,108.9377 92.1797,108.9377 L91.7657,108.9377 C91.8347,108.9377 91.9027,108.9367 91.9727,108.9347 C81.0237,108.6787 49.9727,88.4187 49.9727,50.5917 L49.9727,22.0397 C49.9727,22.0397 50.8707,22.1527 52.4837,22.1527 C58.6567,22.1527 75.2997,20.5097 92.1797,4.6597 C113.4547,21.5487 131.7217,22.0417 133.7807,22.0417 C133.9087,22.0417 133.9737,22.0397 133.9737,22.0397 L133.9737,50.5917 Z" fill="#FFFFFF"></path>
            <path d="M133.7808,22.0419 C131.7208,22.0419 113.4548,21.5489 92.1798,4.6599 C75.2998,20.5099 58.6558,22.1519 52.4838,22.1519 C50.8708,22.1519 49.9718,22.0399 49.9718,22.0399 L49.9718,50.5919 C49.9718,88.4189 81.0238,108.6789 91.9728,108.9349 C102.9228,108.6789 133.9738,88.4189 133.9738,50.5919 L133.9738,22.0399 C133.9738,22.0399 133.9078,22.0419 133.7808,22.0419" fill="#231F20"></path>
            <path d="M93.0982,65.54 L93.0982,70.702 L91.0072,70.702 L91.0072,65.54 C90.0872,65.137 89.4422,64.221 89.4422,63.151 C89.4422,61.71 90.6112,60.541 92.0522,60.541 C93.4942,60.541 94.6622,61.71 94.6622,63.151 C94.6622,64.221 94.0182,65.137 93.0982,65.54 Z M83.5242,52.27 L83.5242,43.723 C83.5242,38.987 87.3762,35.137 92.1112,35.137 C96.8452,35.137 100.6962,38.987 100.6962,43.723 L100.6962,53.769 L83.5242,53.769 L83.5242,52.27 Z M105.1922,53.769 L105.1922,43.723 C105.1922,36.51 99.3232,30.641 92.1112,30.641 C84.8972,30.641 79.0282,36.51 79.0282,43.723 L79.0282,53.769 L75.3062,53.769 L75.3062,76.955 L108.6402,76.955 L108.6402,53.769 L105.1922,53.769 Z" fill="#FFFFFF"></path>
        </g>
    </g>
</svg>